<?xml version="1.0" encoding="UTF-8"?>
<svg xmlns="http://www.w3.org/2000/svg" viewBox="0 0 380 502" font-family="system-ui, sans-serif">
<rect width="380" height="502" fill="#FAFAF8"/>
<rect x="30" y="24" width="320" height="64" rx="12" fill="#EDE9FE" stroke="#8B5CF6" stroke-width="2"/>
<text x="190" y="50" text-anchor="middle" font-size="16" font-weight="700" fill="#5B21B6">우르드바 다누라사나</text>
<text x="190" y="72" text-anchor="middle" font-size="12" fill="#7C3AED">목표자세 · 등 · 고관절</text>
<line x1="190" y1="88" x2="190" y2="108" stroke="#A8A29E" stroke-width="2"/>
<rect x="30" y="108" width="320" height="58" rx="10" fill="#DCFCE7" stroke="#4ADE80" stroke-width="1.5"/>
<text x="190" y="132" text-anchor="middle" font-size="14" font-weight="600" fill="#166534">시팅</text>
<text x="190" y="152" text-anchor="middle" font-size="11" fill="#15803D">손목 · 어깨 워밍업</text>
<line x1="190" y1="166" x2="190" y2="186" stroke="#A8A29E" stroke-width="2"/>
<rect x="30" y="186" width="320" height="58" rx="10" fill="#DCFCE7" stroke="#4ADE80" stroke-width="1.5"/>
<text x="190" y="210" text-anchor="middle" font-size="14" font-weight="600" fill="#166534">받다코나 · 시팅</text>
<text x="190" y="230" text-anchor="middle" font-size="11" fill="#15803D">몸 앞면 깨우기</text>
<line x1="190" y1="244" x2="190" y2="264" stroke="#A8A29E" stroke-width="2"/>
<rect x="30" y="264" width="320" height="58" rx="10" fill="#DCFCE7" stroke="#4ADE80" stroke-width="1.5"/>
<text x="190" y="288" text-anchor="middle" font-size="14" font-weight="600" fill="#166534">빌드업</text>
<text x="190" y="308" text-anchor="middle" font-size="11" fill="#15803D">백벤드 준비</text>
<line x1="190" y1="322" x2="190" y2="342" stroke="#A8A29E" stroke-width="2"/>
<rect x="30" y="342" width="320" height="58" rx="10" fill="#DCFCE7" stroke="#4ADE80" stroke-width="1.5"/>
<text x="190" y="366" text-anchor="middle" font-size="14" font-weight="600" fill="#166534">스탠딩</text>
<text x="190" y="386" text-anchor="middle" font-size="11" fill="#15803D">휠 준비 동작</text>
<line x1="190" y1="400" x2="190" y2="420" stroke="#A8A29E" stroke-width="2"/>
<rect x="30" y="420" width="320" height="58" rx="10" fill="#FFEDD5" stroke="#F97316" stroke-width="2"/>
<text x="190" y="444" text-anchor="middle" font-size="14" font-weight="700" fill="#9A3412">우르드바 다누라사나</text>
<text x="190" y="464" text-anchor="middle" font-size="11" fill="#C2410C">피크 — 발바닥 · 등 힘</text>
</svg>