<?xml version="1.0" encoding="UTF-8"?>
<svg xmlns="http://www.w3.org/2000/svg" viewBox="0 0 380 502" font-family="system-ui, sans-serif">
<rect width="380" height="502" fill="#F5F2ED"/>
<rect x="30" y="24" width="320" height="64" rx="12" fill="#5A5A40" stroke="#4A4A30" stroke-width="1.5"/>
<text x="190" y="50" text-anchor="middle" font-size="16" font-weight="700" fill="#FFFFFF">우르드바 다누라사나</text>
<text x="190" y="72" text-anchor="middle" font-size="12" fill="#E8E6DC">목표자세 · 등 · 고관절</text>
<line x1="190" y1="88" x2="190" y2="108" stroke="#B8B4A8" stroke-width="1.5"/>
<rect x="30" y="108" width="320" height="58" rx="10" fill="#FFFCF9" stroke="#C8C4B8" stroke-width="1"/>
<text x="190" y="132" text-anchor="middle" font-size="14" font-weight="600" fill="#1A1A1A">시팅</text>
<text x="190" y="152" text-anchor="middle" font-size="11" fill="#5A5A40">손목 · 어깨 워밍업</text>
<line x1="190" y1="166" x2="190" y2="186" stroke="#B8B4A8" stroke-width="1.5"/>
<rect x="30" y="186" width="320" height="58" rx="10" fill="#FFFCF9" stroke="#C8C4B8" stroke-width="1"/>
<text x="190" y="210" text-anchor="middle" font-size="14" font-weight="600" fill="#1A1A1A">받다코나 · 시팅</text>
<text x="190" y="230" text-anchor="middle" font-size="11" fill="#5A5A40">몸 앞면 깨우기</text>
<line x1="190" y1="244" x2="190" y2="264" stroke="#B8B4A8" stroke-width="1.5"/>
<rect x="30" y="264" width="320" height="58" rx="10" fill="#FFFCF9" stroke="#C8C4B8" stroke-width="1"/>
<text x="190" y="288" text-anchor="middle" font-size="14" font-weight="600" fill="#1A1A1A">빌드업</text>
<text x="190" y="308" text-anchor="middle" font-size="11" fill="#5A5A40">백벤드 준비</text>
<line x1="190" y1="322" x2="190" y2="342" stroke="#B8B4A8" stroke-width="1.5"/>
<rect x="30" y="342" width="320" height="58" rx="10" fill="#FFFCF9" stroke="#C8C4B8" stroke-width="1"/>
<text x="190" y="366" text-anchor="middle" font-size="14" font-weight="600" fill="#1A1A1A">스탠딩</text>
<text x="190" y="386" text-anchor="middle" font-size="11" fill="#5A5A40">휠 준비 동작</text>
<line x1="190" y1="400" x2="190" y2="420" stroke="#B8B4A8" stroke-width="1.5"/>
<rect x="30" y="420" width="320" height="58" rx="10" fill="#EBE8E2" stroke="#5A5A40" stroke-width="2"/>
<text x="190" y="444" text-anchor="middle" font-size="14" font-weight="700" fill="#1A1A1A">우르드바 다누라사나</text>
<text x="190" y="464" text-anchor="middle" font-size="11" fill="#4A4A30">피크 — 발바닥 · 등 힘</text>
</svg>