<?xml version="1.0" encoding="UTF-8"?>
<svg xmlns="http://www.w3.org/2000/svg" viewBox="0 0 1100 680" font-family="system-ui, sans-serif">
  <rect width="1100" height="680" fill="#F5F2ED"/>
  <text x="550" y="32" text-anchor="middle" font-size="17" font-weight="700" fill="#1A1A1A">힐링 - 고관절 열기</text>
  <text x="550" y="52" text-anchor="middle" font-size="12" fill="#5A5A40">목표: 사마코나사나</text>
  <ellipse cx="550" cy="340" rx="88" ry="38" fill="#5A5A40"/>
  <text x="550" y="336" text-anchor="middle" fill="#fff" font-size="13" font-weight="600">사마코나사나</text>
  <text x="550" y="352" text-anchor="middle" fill="#fff" font-size="10">중열</text>
  <rect x="40" y="88" width="130" height="44" rx="10" fill="#fff" stroke="#5A5A40" stroke-width="1.5"/>
  <text x="105" y="115" text-anchor="middle" fill="#1A1A1A" font-size="12" font-weight="600">1 시팅</text>
  <line x1="170" y1="110" x2="462" y2="310" stroke="#5A5A40" stroke-width="1.3"/>
  <rect x="485" y="78" width="130" height="44" rx="10" fill="#fff" stroke="#5A5A40" stroke-width="1.5"/>
  <text x="550" y="105" text-anchor="middle" fill="#1A1A1A" font-size="12" font-weight="600">2 받다코나</text>
  <line x1="550" y1="122" x2="550" y2="302" stroke="#5A5A40" stroke-width="1.3"/>
  <rect x="930" y="88" width="130" height="44" rx="10" fill="#fff" stroke="#5A5A40" stroke-width="1.5"/>
  <text x="995" y="105" text-anchor="middle" fill="#1A1A1A" font-size="12" font-weight="600">3 A사이드</text>
  <line x1="930" y1="110" x2="638" y2="310" stroke="#5A5A40" stroke-width="1.3"/>
  <rect x="930" y="318" width="130" height="44" rx="10" fill="#EBE8E2" stroke="#5A5A40" stroke-width="1.5"/>
  <text x="995" y="345" text-anchor="middle" fill="#1A1A1A" font-size="12" font-weight="600">4 B사이드</text>
  <line x1="930" y1="340" x2="638" y2="340" stroke="#5A5A40" stroke-width="1.3"/>
  <rect x="780" y="520" width="140" height="44" rx="10" fill="#fff" stroke="#5A5A40" stroke-width="1.5"/>
  <text x="850" y="540" text-anchor="middle" fill="#1A1A1A" font-size="12" font-weight="600">5 블럭시팅</text>
  <line x1="780" y1="530" x2="620" y2="370" stroke="#5A5A40" stroke-width="1.3"/>
  <rect x="180" y="520" width="140" height="44" rx="10" fill="#fff" stroke="#5A5A40" stroke-width="1.5"/>
  <text x="250" y="540" text-anchor="middle" fill="#1A1A1A" font-size="12" font-weight="600">6 테이블</text>
  <line x1="320" y1="530" x2="480" y2="370" stroke="#5A5A40" stroke-width="1.3"/>
  <text x="550" y="620" text-anchor="middle" fill="#5A5A40" font-size="11">1 - 2 - 3 - 4 - 5 - 6 - 사마코나사나</text>
</svg>
