<?xml version="1.0" encoding="UTF-8"?>
<svg xmlns="http://www.w3.org/2000/svg" viewBox="0 0 380 658" font-family="system-ui, sans-serif">
<rect width="380" height="658" fill="#F5F2ED"/>
<rect x="30" y="24" width="320" height="64" rx="12" fill="#5A5A40" stroke="#4A4A30" stroke-width="1.5"/>
<text x="190" y="50" text-anchor="middle" font-size="16" font-weight="700" fill="#FFFFFF">사마코나사나</text>
<text x="190" y="72" text-anchor="middle" font-size="12" fill="#E8E6DC">목표자세 · 힐링</text>
<line x1="190" y1="88" x2="190" y2="108" stroke="#B8B4A8" stroke-width="1.5"/>
<rect x="30" y="108" width="320" height="58" rx="10" fill="#FFFCF9" stroke="#C8C4B8" stroke-width="1"/>
<text x="190" y="132" text-anchor="middle" font-size="14" font-weight="600" fill="#1A1A1A">수카사나</text>
<text x="190" y="152" text-anchor="middle" font-size="11" fill="#5A5A40">어깨 · 가슴 워밍업</text>
<line x1="190" y1="166" x2="190" y2="186" stroke="#B8B4A8" stroke-width="1.5"/>
<rect x="30" y="186" width="320" height="58" rx="10" fill="#FFFCF9" stroke="#C8C4B8" stroke-width="1"/>
<text x="190" y="210" text-anchor="middle" font-size="14" font-weight="600" fill="#1A1A1A">받다코나사나</text>
<text x="190" y="230" text-anchor="middle" font-size="11" fill="#5A5A40">고관절 · 날개짓</text>
<line x1="190" y1="244" x2="190" y2="264" stroke="#B8B4A8" stroke-width="1.5"/>
<rect x="30" y="264" width="320" height="58" rx="10" fill="#FFFCF9" stroke="#C8C4B8" stroke-width="1"/>
<text x="190" y="288" text-anchor="middle" font-size="14" font-weight="600" fill="#1A1A1A">단다사나 ~ 파스치모</text>
<text x="190" y="308" text-anchor="middle" font-size="11" fill="#5A5A40">A/B 사이드 · 햄스트링</text>
<line x1="190" y1="322" x2="190" y2="342" stroke="#B8B4A8" stroke-width="1.5"/>
<rect x="30" y="342" width="320" height="58" rx="10" fill="#FFFCF9" stroke="#C8C4B8" stroke-width="1"/>
<text x="190" y="366" text-anchor="middle" font-size="14" font-weight="600" fill="#1A1A1A">블럭 시팅</text>
<text x="190" y="386" text-anchor="middle" font-size="11" fill="#5A5A40">전굴 · 트위스트</text>
<line x1="190" y1="400" x2="190" y2="420" stroke="#B8B4A8" stroke-width="1.5"/>
<rect x="30" y="420" width="320" height="58" rx="10" fill="#FFFCF9" stroke="#C8C4B8" stroke-width="1"/>
<text x="190" y="444" text-anchor="middle" font-size="14" font-weight="600" fill="#1A1A1A">테이블</text>
<text x="190" y="464" text-anchor="middle" font-size="11" fill="#5A5A40">척추 · 어깨 스트레칭</text>
<line x1="190" y1="478" x2="190" y2="498" stroke="#B8B4A8" stroke-width="1.5"/>
<rect x="30" y="498" width="320" height="58" rx="10" fill="#FFFCF9" stroke="#C8C4B8" stroke-width="1"/>
<text x="190" y="522" text-anchor="middle" font-size="14" font-weight="600" fill="#1A1A1A">로우런지</text>
<text x="190" y="542" text-anchor="middle" font-size="11" fill="#5A5A40">앞허벅지 · 골반</text>
<line x1="190" y1="556" x2="190" y2="576" stroke="#B8B4A8" stroke-width="1.5"/>
<rect x="30" y="576" width="320" height="58" rx="10" fill="#EBE8E2" stroke="#5A5A40" stroke-width="2"/>
<text x="190" y="600" text-anchor="middle" font-size="14" font-weight="700" fill="#1A1A1A">사마코나사나</text>
<text x="190" y="620" text-anchor="middle" font-size="11" fill="#4A4A30">다리 옆으로 벌려…</text>
</svg>