<?xml version="1.0" encoding="UTF-8"?>
<svg xmlns="http://www.w3.org/2000/svg" class="sequence-mindmap" viewBox="0 0 380 424" font-family="system-ui, sans-serif">
<rect width="380" height="424" fill="var(--mm-bg)"/>
<rect x="30" y="24" width="320" height="64" rx="12" fill="var(--mm-root-fill)" stroke="var(--mm-root-stroke)" stroke-width="1.5"/>
<text x="190" y="50" text-anchor="middle" font-size="16" font-weight="700" fill="var(--mm-root-title)">수카사나</text>
<text x="190" y="72" text-anchor="middle" font-size="12" fill="var(--mm-root-sub)">앉아서 시작 · 힐링</text>
<line x1="190" y1="88" x2="190" y2="108" stroke="var(--mm-line)" stroke-width="1.5"/>
<rect x="30" y="108" width="320" height="58" rx="10" fill="var(--mm-step-fill)" stroke="var(--mm-step-stroke)" stroke-width="1"/>
<text x="190" y="132" text-anchor="middle" font-size="14" font-weight="600" fill="var(--mm-step-title)">팔 스트레칭</text>
<text x="190" y="152" text-anchor="middle" font-size="11" fill="var(--mm-step-sub)">양팔 길게 펴기</text>
<line x1="190" y1="166" x2="190" y2="186" stroke="var(--mm-line)" stroke-width="1.5"/>
<rect x="30" y="186" width="320" height="58" rx="10" fill="var(--mm-step-fill)" stroke="var(--mm-step-stroke)" stroke-width="1"/>
<text x="190" y="210" text-anchor="middle" font-size="14" font-weight="600" fill="var(--mm-step-title)">소풍 돌리기</text>
<text x="190" y="230" text-anchor="middle" font-size="11" fill="var(--mm-step-sub)">한손 주먹 · 손목</text>
<line x1="190" y1="244" x2="190" y2="264" stroke="var(--mm-line)" stroke-width="1.5"/>
<rect x="30" y="264" width="320" height="58" rx="10" fill="var(--mm-step-fill)" stroke="var(--mm-step-stroke)" stroke-width="1"/>
<text x="190" y="288" text-anchor="middle" font-size="14" font-weight="600" fill="var(--mm-step-title)">측면 폴드</text>
<text x="190" y="308" text-anchor="middle" font-size="11" fill="var(--mm-step-sub)">오른쪽 · 왼쪽</text>
<line x1="190" y1="322" x2="190" y2="342" stroke="var(--mm-line)" stroke-width="1.5"/>
<rect x="30" y="342" width="320" height="58" rx="10" fill="var(--mm-peak-fill)" stroke="var(--mm-peak-stroke)" stroke-width="2"/>
<text x="190" y="366" text-anchor="middle" font-size="14" font-weight="700" fill="var(--mm-peak-title)">수카사나 전굴</text>
<text x="190" y="386" text-anchor="middle" font-size="11" fill="var(--mm-peak-sub)">앞으로 접으며 휴식</text>
</svg>